<mxfile host="Electron" agent="Mozilla/5.0 (Windows NT 10.0; Win64; x64) AppleWebKit/537.36 (KHTML, like Gecko) draw.io/28.1.2 Chrome/138.0.7204.243 Electron/37.4.0 Safari/537.36" version="28.1.2">
  <diagram name="Page-1" id="O32QnvmtVBVbf1MIhSZD">
    <mxGraphModel dx="1849" dy="1294" grid="1" gridSize="10" guides="1" tooltips="1" connect="1" arrows="1" fold="1" page="0" pageScale="1" pageWidth="1100" pageHeight="850" math="0" shadow="0">
      <root>
        <mxCell id="0" />
        <mxCell id="1" parent="0" />
        <mxCell id="foBSscArrpowM1dZqByp-1" value="crm_customers" style="swimlane;fontStyle=0;childLayout=stackLayout;horizontal=1;startSize=30;horizontalStack=0;resizeParent=1;resizeParentMax=0;resizeLast=0;collapsible=1;marginBottom=0;whiteSpace=wrap;html=1;fillColor=#e1d5e7;strokeColor=#9673a6;rounded=1;fontSize=21;" vertex="1" parent="1">
          <mxGeometry x="-80" y="-140" width="180" height="60" as="geometry" />
        </mxCell>
        <mxCell id="foBSscArrpowM1dZqByp-2" value="customer_id" style="text;strokeColor=none;fillColor=none;align=left;verticalAlign=middle;spacingLeft=4;spacingRight=4;overflow=hidden;points=[[0,0.5],[1,0.5]];portConstraint=eastwest;rotatable=0;whiteSpace=wrap;html=1;fontSize=21;" vertex="1" parent="foBSscArrpowM1dZqByp-1">
          <mxGeometry y="30" width="180" height="30" as="geometry" />
        </mxCell>
        <mxCell id="foBSscArrpowM1dZqByp-6" value="&lt;div&gt;&lt;font style=&quot;font-size: 14px;&quot;&gt;Customer Information&lt;/font&gt;&lt;/div&gt;" style="text;html=1;align=center;verticalAlign=middle;whiteSpace=wrap;rounded=0;" vertex="1" parent="1">
          <mxGeometry x="-67.5" y="-170" width="155" height="30" as="geometry" />
        </mxCell>
        <mxCell id="foBSscArrpowM1dZqByp-7" value="crm_returns" style="swimlane;fontStyle=0;childLayout=stackLayout;horizontal=1;startSize=30;horizontalStack=0;resizeParent=1;resizeParentMax=0;resizeLast=0;collapsible=1;marginBottom=0;whiteSpace=wrap;html=1;fillColor=#e1d5e7;strokeColor=#9673a6;rounded=1;fontSize=21;" vertex="1" parent="1">
          <mxGeometry x="-80" y="280" width="180" height="120" as="geometry" />
        </mxCell>
        <mxCell id="foBSscArrpowM1dZqByp-8" value="return_id&lt;div&gt;&lt;br&gt;&lt;/div&gt;&lt;div&gt;&lt;br&gt;&lt;/div&gt;" style="text;strokeColor=none;fillColor=none;align=left;verticalAlign=middle;spacingLeft=4;spacingRight=4;overflow=hidden;points=[[0,0.5],[1,0.5]];portConstraint=eastwest;rotatable=0;whiteSpace=wrap;html=1;fontSize=21;" vertex="1" parent="foBSscArrpowM1dZqByp-7">
          <mxGeometry y="30" width="180" height="30" as="geometry" />
        </mxCell>
        <mxCell id="foBSscArrpowM1dZqByp-22" value="order_id" style="text;strokeColor=none;fillColor=none;align=left;verticalAlign=middle;spacingLeft=4;spacingRight=4;overflow=hidden;points=[[0,0.5],[1,0.5]];portConstraint=eastwest;rotatable=0;whiteSpace=wrap;html=1;fontSize=21;" vertex="1" parent="foBSscArrpowM1dZqByp-7">
          <mxGeometry y="60" width="180" height="30" as="geometry" />
        </mxCell>
        <mxCell id="foBSscArrpowM1dZqByp-23" value="sku" style="text;strokeColor=none;fillColor=none;align=left;verticalAlign=middle;spacingLeft=4;spacingRight=4;overflow=hidden;points=[[0,0.5],[1,0.5]];portConstraint=eastwest;rotatable=0;whiteSpace=wrap;html=1;fontSize=21;" vertex="1" parent="foBSscArrpowM1dZqByp-7">
          <mxGeometry y="90" width="180" height="30" as="geometry" />
        </mxCell>
        <mxCell id="foBSscArrpowM1dZqByp-9" value="&lt;div&gt;&lt;font style=&quot;font-size: 14px;&quot;&gt;Returns Information&lt;/font&gt;&lt;/div&gt;" style="text;html=1;align=center;verticalAlign=middle;whiteSpace=wrap;rounded=0;" vertex="1" parent="1">
          <mxGeometry x="-67.5" y="250" width="155" height="30" as="geometry" />
        </mxCell>
        <mxCell id="foBSscArrpowM1dZqByp-10" value="crm_sales_leads" style="swimlane;fontStyle=0;childLayout=stackLayout;horizontal=1;startSize=30;horizontalStack=0;resizeParent=1;resizeParentMax=0;resizeLast=0;collapsible=1;marginBottom=0;whiteSpace=wrap;html=1;fillColor=#e1d5e7;strokeColor=#9673a6;rounded=1;fontSize=21;" vertex="1" parent="1">
          <mxGeometry x="-80" y="-40" width="220" height="120" as="geometry" />
        </mxCell>
        <mxCell id="foBSscArrpowM1dZqByp-11" value="customer_id" style="text;strokeColor=none;fillColor=none;align=left;verticalAlign=middle;spacingLeft=4;spacingRight=4;overflow=hidden;points=[[0,0.5],[1,0.5]];portConstraint=eastwest;rotatable=0;whiteSpace=wrap;html=1;fontSize=21;" vertex="1" parent="foBSscArrpowM1dZqByp-10">
          <mxGeometry y="30" width="220" height="30" as="geometry" />
        </mxCell>
        <mxCell id="foBSscArrpowM1dZqByp-20" value="product_interest (sku)" style="text;strokeColor=none;fillColor=none;align=left;verticalAlign=middle;spacingLeft=4;spacingRight=4;overflow=hidden;points=[[0,0.5],[1,0.5]];portConstraint=eastwest;rotatable=0;whiteSpace=wrap;html=1;fontSize=21;" vertex="1" parent="foBSscArrpowM1dZqByp-10">
          <mxGeometry y="60" width="220" height="60" as="geometry" />
        </mxCell>
        <mxCell id="foBSscArrpowM1dZqByp-12" value="&lt;div&gt;&lt;font style=&quot;font-size: 14px;&quot;&gt;Potential Customer Orders&lt;/font&gt;&lt;/div&gt;" style="text;html=1;align=center;verticalAlign=middle;whiteSpace=wrap;rounded=0;" vertex="1" parent="1">
          <mxGeometry x="-83.75" y="-70" width="187.5" height="30" as="geometry" />
        </mxCell>
        <mxCell id="foBSscArrpowM1dZqByp-15" value="crm_sales_orders" style="swimlane;fontStyle=0;childLayout=stackLayout;horizontal=1;startSize=30;horizontalStack=0;resizeParent=1;resizeParentMax=0;resizeLast=0;collapsible=1;marginBottom=0;whiteSpace=wrap;html=1;fillColor=#e1d5e7;strokeColor=#9673a6;rounded=1;fontSize=21;" vertex="1" parent="1">
          <mxGeometry x="-80" y="120" width="180" height="120" as="geometry" />
        </mxCell>
        <mxCell id="foBSscArrpowM1dZqByp-16" value="customer_id&lt;div&gt;&lt;br&gt;&lt;/div&gt;" style="text;strokeColor=none;fillColor=none;align=left;verticalAlign=middle;spacingLeft=4;spacingRight=4;overflow=hidden;points=[[0,0.5],[1,0.5]];portConstraint=eastwest;rotatable=0;whiteSpace=wrap;html=1;fontSize=21;" vertex="1" parent="foBSscArrpowM1dZqByp-15">
          <mxGeometry y="30" width="180" height="30" as="geometry" />
        </mxCell>
        <mxCell id="foBSscArrpowM1dZqByp-26" value="&lt;div&gt;&lt;span style=&quot;background-color: transparent; color: light-dark(rgb(0, 0, 0), rgb(255, 255, 255));&quot;&gt;order_id&lt;/span&gt;&lt;/div&gt;&lt;div&gt;&lt;span style=&quot;background-color: transparent; color: light-dark(rgb(0, 0, 0), rgb(255, 255, 255));&quot;&gt;&lt;br&gt;&lt;/span&gt;&lt;/div&gt;" style="text;strokeColor=none;fillColor=none;align=left;verticalAlign=middle;spacingLeft=4;spacingRight=4;overflow=hidden;points=[[0,0.5],[1,0.5]];portConstraint=eastwest;rotatable=0;whiteSpace=wrap;html=1;fontSize=21;" vertex="1" parent="foBSscArrpowM1dZqByp-15">
          <mxGeometry y="60" width="180" height="30" as="geometry" />
        </mxCell>
        <mxCell id="foBSscArrpowM1dZqByp-25" value="sku" style="text;strokeColor=none;fillColor=none;align=left;verticalAlign=middle;spacingLeft=4;spacingRight=4;overflow=hidden;points=[[0,0.5],[1,0.5]];portConstraint=eastwest;rotatable=0;whiteSpace=wrap;html=1;fontSize=21;" vertex="1" parent="foBSscArrpowM1dZqByp-15">
          <mxGeometry y="90" width="180" height="30" as="geometry" />
        </mxCell>
        <mxCell id="foBSscArrpowM1dZqByp-17" value="&lt;div&gt;&lt;font style=&quot;font-size: 14px;&quot;&gt;Customers Orders&lt;/font&gt;&lt;/div&gt;" style="text;html=1;align=center;verticalAlign=middle;whiteSpace=wrap;rounded=0;" vertex="1" parent="1">
          <mxGeometry x="-67.5" y="90" width="155" height="30" as="geometry" />
        </mxCell>
        <mxCell id="foBSscArrpowM1dZqByp-29" value="erp_inventory" style="swimlane;fontStyle=0;childLayout=stackLayout;horizontal=1;startSize=30;horizontalStack=0;resizeParent=1;resizeParentMax=0;resizeLast=0;collapsible=1;marginBottom=0;whiteSpace=wrap;html=1;fillColor=#e1d5e7;strokeColor=#9673a6;rounded=1;fontSize=21;" vertex="1" parent="1">
          <mxGeometry x="440" y="240" width="240" height="90" as="geometry" />
        </mxCell>
        <mxCell id="foBSscArrpowM1dZqByp-85" style="edgeStyle=orthogonalEdgeStyle;rounded=0;orthogonalLoop=1;jettySize=auto;html=1;" edge="1" parent="foBSscArrpowM1dZqByp-29">
          <mxGeometry relative="1" as="geometry">
            <mxPoint x="239.9411764705883" y="-110" as="targetPoint" />
            <mxPoint x="240" y="45" as="sourcePoint" />
            <Array as="points">
              <mxPoint x="320" y="45" />
              <mxPoint x="320" y="-110" />
            </Array>
          </mxGeometry>
        </mxCell>
        <mxCell id="foBSscArrpowM1dZqByp-30" value="&lt;div&gt;sku&lt;/div&gt;" style="text;strokeColor=none;fillColor=none;align=left;verticalAlign=middle;spacingLeft=4;spacingRight=4;overflow=hidden;points=[[0,0.5],[1,0.5]];portConstraint=eastwest;rotatable=0;whiteSpace=wrap;html=1;fontSize=21;" vertex="1" parent="foBSscArrpowM1dZqByp-29">
          <mxGeometry y="30" width="240" height="30" as="geometry" />
        </mxCell>
        <mxCell id="foBSscArrpowM1dZqByp-31" value="&lt;div&gt;warehouse_id&lt;/div&gt;" style="text;strokeColor=none;fillColor=none;align=left;verticalAlign=middle;spacingLeft=4;spacingRight=4;overflow=hidden;points=[[0,0.5],[1,0.5]];portConstraint=eastwest;rotatable=0;whiteSpace=wrap;html=1;fontSize=21;" vertex="1" parent="foBSscArrpowM1dZqByp-29">
          <mxGeometry y="60" width="240" height="30" as="geometry" />
        </mxCell>
        <mxCell id="foBSscArrpowM1dZqByp-33" value="&lt;div&gt;&lt;font style=&quot;font-size: 14px;&quot;&gt;Warehouse Stock Level&lt;/font&gt;&lt;/div&gt;" style="text;html=1;align=center;verticalAlign=middle;whiteSpace=wrap;rounded=0;" vertex="1" parent="1">
          <mxGeometry x="482.5" y="210" width="155" height="30" as="geometry" />
        </mxCell>
        <mxCell id="foBSscArrpowM1dZqByp-38" value="erp_inventory_transactions" style="swimlane;fontStyle=0;childLayout=stackLayout;horizontal=1;startSize=30;horizontalStack=0;resizeParent=1;resizeParentMax=0;resizeLast=0;collapsible=1;marginBottom=0;whiteSpace=wrap;html=1;fillColor=#e1d5e7;strokeColor=#9673a6;rounded=1;fontSize=21;" vertex="1" parent="1">
          <mxGeometry x="410" y="370" width="310" height="90" as="geometry" />
        </mxCell>
        <mxCell id="foBSscArrpowM1dZqByp-86" style="edgeStyle=orthogonalEdgeStyle;rounded=0;orthogonalLoop=1;jettySize=auto;html=1;exitX=1;exitY=0.5;exitDx=0;exitDy=0;" edge="1" parent="foBSscArrpowM1dZqByp-38" source="foBSscArrpowM1dZqByp-39">
          <mxGeometry relative="1" as="geometry">
            <mxPoint x="270" y="-90" as="targetPoint" />
            <Array as="points">
              <mxPoint x="350" y="45" />
              <mxPoint x="350" y="-90" />
            </Array>
          </mxGeometry>
        </mxCell>
        <mxCell id="foBSscArrpowM1dZqByp-39" value="&lt;div&gt;sku&lt;/div&gt;" style="text;strokeColor=none;fillColor=none;align=left;verticalAlign=middle;spacingLeft=4;spacingRight=4;overflow=hidden;points=[[0,0.5],[1,0.5]];portConstraint=eastwest;rotatable=0;whiteSpace=wrap;html=1;fontSize=21;" vertex="1" parent="foBSscArrpowM1dZqByp-38">
          <mxGeometry y="30" width="310" height="30" as="geometry" />
        </mxCell>
        <mxCell id="foBSscArrpowM1dZqByp-40" value="&lt;div&gt;warehouse_id&lt;/div&gt;" style="text;strokeColor=none;fillColor=none;align=left;verticalAlign=middle;spacingLeft=4;spacingRight=4;overflow=hidden;points=[[0,0.5],[1,0.5]];portConstraint=eastwest;rotatable=0;whiteSpace=wrap;html=1;fontSize=21;" vertex="1" parent="foBSscArrpowM1dZqByp-38">
          <mxGeometry y="60" width="310" height="30" as="geometry" />
        </mxCell>
        <mxCell id="foBSscArrpowM1dZqByp-41" value="&lt;div&gt;&lt;font style=&quot;font-size: 14px;&quot;&gt;Movements of Stocks in/out Warehouse&lt;/font&gt;&lt;/div&gt;" style="text;html=1;align=center;verticalAlign=middle;whiteSpace=wrap;rounded=0;" vertex="1" parent="1">
          <mxGeometry x="428.75" y="340" width="262.5" height="30" as="geometry" />
        </mxCell>
        <mxCell id="foBSscArrpowM1dZqByp-44" value="erp_products" style="swimlane;fontStyle=0;childLayout=stackLayout;horizontal=1;startSize=30;horizontalStack=0;resizeParent=1;resizeParentMax=0;resizeLast=0;collapsible=1;marginBottom=0;whiteSpace=wrap;html=1;fillColor=#e1d5e7;strokeColor=#9673a6;rounded=1;fontSize=21;" vertex="1" parent="1">
          <mxGeometry x="440" y="-40" width="240" height="90" as="geometry" />
        </mxCell>
        <mxCell id="foBSscArrpowM1dZqByp-45" value="&lt;div&gt;sku&lt;/div&gt;" style="text;strokeColor=none;fillColor=none;align=left;verticalAlign=middle;spacingLeft=4;spacingRight=4;overflow=hidden;points=[[0,0.5],[1,0.5]];portConstraint=eastwest;rotatable=0;whiteSpace=wrap;html=1;fontSize=21;" vertex="1" parent="foBSscArrpowM1dZqByp-44">
          <mxGeometry y="30" width="240" height="30" as="geometry" />
        </mxCell>
        <mxCell id="foBSscArrpowM1dZqByp-46" value="&lt;div&gt;supplier_id&lt;/div&gt;" style="text;strokeColor=none;fillColor=none;align=left;verticalAlign=middle;spacingLeft=4;spacingRight=4;overflow=hidden;points=[[0,0.5],[1,0.5]];portConstraint=eastwest;rotatable=0;whiteSpace=wrap;html=1;fontSize=21;" vertex="1" parent="foBSscArrpowM1dZqByp-44">
          <mxGeometry y="60" width="240" height="30" as="geometry" />
        </mxCell>
        <mxCell id="foBSscArrpowM1dZqByp-47" value="&lt;div&gt;&lt;font style=&quot;font-size: 14px;&quot;&gt;Product Catalog&lt;/font&gt;&lt;/div&gt;" style="text;html=1;align=center;verticalAlign=middle;whiteSpace=wrap;rounded=0;" vertex="1" parent="1">
          <mxGeometry x="482.5" y="-70" width="155" height="30" as="geometry" />
        </mxCell>
        <mxCell id="foBSscArrpowM1dZqByp-50" value="erp_purchase_orders" style="swimlane;fontStyle=0;childLayout=stackLayout;horizontal=1;startSize=30;horizontalStack=0;resizeParent=1;resizeParentMax=0;resizeLast=0;collapsible=1;marginBottom=0;whiteSpace=wrap;html=1;fillColor=#e1d5e7;strokeColor=#9673a6;rounded=1;fontSize=21;" vertex="1" parent="1">
          <mxGeometry x="440" y="90" width="240" height="120" as="geometry" />
        </mxCell>
        <mxCell id="foBSscArrpowM1dZqByp-51" value="&lt;div&gt;sku&lt;/div&gt;" style="text;strokeColor=none;fillColor=none;align=left;verticalAlign=middle;spacingLeft=4;spacingRight=4;overflow=hidden;points=[[0,0.5],[1,0.5]];portConstraint=eastwest;rotatable=0;whiteSpace=wrap;html=1;fontSize=21;" vertex="1" parent="foBSscArrpowM1dZqByp-50">
          <mxGeometry y="30" width="240" height="30" as="geometry" />
        </mxCell>
        <mxCell id="foBSscArrpowM1dZqByp-52" value="&lt;div&gt;supplier_id&lt;/div&gt;" style="text;strokeColor=none;fillColor=none;align=left;verticalAlign=middle;spacingLeft=4;spacingRight=4;overflow=hidden;points=[[0,0.5],[1,0.5]];portConstraint=eastwest;rotatable=0;whiteSpace=wrap;html=1;fontSize=21;" vertex="1" parent="foBSscArrpowM1dZqByp-50">
          <mxGeometry y="60" width="240" height="30" as="geometry" />
        </mxCell>
        <mxCell id="foBSscArrpowM1dZqByp-54" value="purchase_order_id" style="text;strokeColor=none;fillColor=none;align=left;verticalAlign=middle;spacingLeft=4;spacingRight=4;overflow=hidden;points=[[0,0.5],[1,0.5]];portConstraint=eastwest;rotatable=0;whiteSpace=wrap;html=1;fontSize=21;" vertex="1" parent="foBSscArrpowM1dZqByp-50">
          <mxGeometry y="90" width="240" height="30" as="geometry" />
        </mxCell>
        <mxCell id="foBSscArrpowM1dZqByp-53" value="&lt;div&gt;&lt;font style=&quot;font-size: 14px;&quot;&gt;Purchase Orders Sent to Suppliers&lt;/font&gt;&lt;/div&gt;" style="text;html=1;align=center;verticalAlign=middle;whiteSpace=wrap;rounded=0;" vertex="1" parent="1">
          <mxGeometry x="446.25" y="60" width="227.5" height="30" as="geometry" />
        </mxCell>
        <mxCell id="foBSscArrpowM1dZqByp-57" value="erp_suppliers" style="swimlane;fontStyle=0;childLayout=stackLayout;horizontal=1;startSize=30;horizontalStack=0;resizeParent=1;resizeParentMax=0;resizeLast=0;collapsible=1;marginBottom=0;whiteSpace=wrap;html=1;fillColor=#e1d5e7;strokeColor=#9673a6;rounded=1;fontSize=21;" vertex="1" parent="1">
          <mxGeometry x="440" y="-140" width="240" height="60" as="geometry" />
        </mxCell>
        <mxCell id="foBSscArrpowM1dZqByp-58" value="&lt;div&gt;supplier_id&lt;/div&gt;" style="text;strokeColor=none;fillColor=none;align=left;verticalAlign=middle;spacingLeft=4;spacingRight=4;overflow=hidden;points=[[0,0.5],[1,0.5]];portConstraint=eastwest;rotatable=0;whiteSpace=wrap;html=1;fontSize=21;" vertex="1" parent="foBSscArrpowM1dZqByp-57">
          <mxGeometry y="30" width="240" height="30" as="geometry" />
        </mxCell>
        <mxCell id="foBSscArrpowM1dZqByp-60" value="&lt;div&gt;&lt;font style=&quot;font-size: 14px;&quot;&gt;Suppliers_Info&lt;/font&gt;&lt;/div&gt;" style="text;html=1;align=center;verticalAlign=middle;whiteSpace=wrap;rounded=0;" vertex="1" parent="1">
          <mxGeometry x="482.5" y="-170" width="155" height="30" as="geometry" />
        </mxCell>
        <mxCell id="foBSscArrpowM1dZqByp-68" style="edgeStyle=orthogonalEdgeStyle;rounded=0;orthogonalLoop=1;jettySize=auto;html=1;exitX=0;exitY=0.5;exitDx=0;exitDy=0;entryX=0;entryY=0.5;entryDx=0;entryDy=0;" edge="1" parent="1" source="foBSscArrpowM1dZqByp-51" target="foBSscArrpowM1dZqByp-45">
          <mxGeometry relative="1" as="geometry" />
        </mxCell>
        <mxCell id="foBSscArrpowM1dZqByp-69" style="edgeStyle=orthogonalEdgeStyle;rounded=0;orthogonalLoop=1;jettySize=auto;html=1;exitX=0;exitY=0.5;exitDx=0;exitDy=0;entryX=0;entryY=0.5;entryDx=0;entryDy=0;" edge="1" parent="1" source="foBSscArrpowM1dZqByp-30" target="foBSscArrpowM1dZqByp-45">
          <mxGeometry relative="1" as="geometry" />
        </mxCell>
        <mxCell id="foBSscArrpowM1dZqByp-70" style="edgeStyle=orthogonalEdgeStyle;rounded=0;orthogonalLoop=1;jettySize=auto;html=1;exitX=0;exitY=0.5;exitDx=0;exitDy=0;entryX=0;entryY=0.5;entryDx=0;entryDy=0;" edge="1" parent="1" source="foBSscArrpowM1dZqByp-39" target="foBSscArrpowM1dZqByp-45">
          <mxGeometry relative="1" as="geometry" />
        </mxCell>
        <mxCell id="foBSscArrpowM1dZqByp-71" style="edgeStyle=orthogonalEdgeStyle;rounded=0;orthogonalLoop=1;jettySize=auto;html=1;exitX=0;exitY=0.5;exitDx=0;exitDy=0;entryX=0;entryY=0.5;entryDx=0;entryDy=0;" edge="1" parent="1" source="foBSscArrpowM1dZqByp-2" target="foBSscArrpowM1dZqByp-11">
          <mxGeometry relative="1" as="geometry" />
        </mxCell>
        <mxCell id="foBSscArrpowM1dZqByp-72" style="edgeStyle=orthogonalEdgeStyle;rounded=0;orthogonalLoop=1;jettySize=auto;html=1;exitX=0;exitY=0.5;exitDx=0;exitDy=0;entryX=0;entryY=0.5;entryDx=0;entryDy=0;" edge="1" parent="1" source="foBSscArrpowM1dZqByp-2" target="foBSscArrpowM1dZqByp-16">
          <mxGeometry relative="1" as="geometry" />
        </mxCell>
        <mxCell id="foBSscArrpowM1dZqByp-74" style="edgeStyle=orthogonalEdgeStyle;rounded=0;orthogonalLoop=1;jettySize=auto;html=1;exitX=0;exitY=0.5;exitDx=0;exitDy=0;entryX=0;entryY=0.5;entryDx=0;entryDy=0;" edge="1" parent="1" source="foBSscArrpowM1dZqByp-26" target="foBSscArrpowM1dZqByp-22">
          <mxGeometry relative="1" as="geometry" />
        </mxCell>
        <mxCell id="foBSscArrpowM1dZqByp-75" style="edgeStyle=orthogonalEdgeStyle;rounded=0;orthogonalLoop=1;jettySize=auto;html=1;exitX=0;exitY=0.5;exitDx=0;exitDy=0;entryX=0;entryY=0.5;entryDx=0;entryDy=0;" edge="1" parent="1" source="foBSscArrpowM1dZqByp-25" target="foBSscArrpowM1dZqByp-23">
          <mxGeometry relative="1" as="geometry" />
        </mxCell>
        <mxCell id="foBSscArrpowM1dZqByp-81" style="edgeStyle=orthogonalEdgeStyle;rounded=0;orthogonalLoop=1;jettySize=auto;html=1;exitX=1;exitY=0.5;exitDx=0;exitDy=0;entryX=1;entryY=0.5;entryDx=0;entryDy=0;" edge="1" parent="1" source="foBSscArrpowM1dZqByp-58" target="foBSscArrpowM1dZqByp-52">
          <mxGeometry relative="1" as="geometry" />
        </mxCell>
        <mxCell id="foBSscArrpowM1dZqByp-82" style="edgeStyle=orthogonalEdgeStyle;rounded=0;orthogonalLoop=1;jettySize=auto;html=1;exitX=1;exitY=0.5;exitDx=0;exitDy=0;entryX=1;entryY=0.5;entryDx=0;entryDy=0;" edge="1" parent="1" source="foBSscArrpowM1dZqByp-58" target="foBSscArrpowM1dZqByp-46">
          <mxGeometry relative="1" as="geometry" />
        </mxCell>
        <mxCell id="foBSscArrpowM1dZqByp-84" style="edgeStyle=orthogonalEdgeStyle;rounded=0;orthogonalLoop=1;jettySize=auto;html=1;exitX=1;exitY=0.5;exitDx=0;exitDy=0;entryX=1;entryY=0.5;entryDx=0;entryDy=0;" edge="1" parent="1" source="foBSscArrpowM1dZqByp-45" target="foBSscArrpowM1dZqByp-51">
          <mxGeometry relative="1" as="geometry">
            <mxPoint x="800" y="5.176470588235361" as="targetPoint" />
            <Array as="points">
              <mxPoint x="760" y="5" />
              <mxPoint x="760" y="135" />
            </Array>
          </mxGeometry>
        </mxCell>
        <mxCell id="foBSscArrpowM1dZqByp-87" style="edgeStyle=orthogonalEdgeStyle;rounded=0;orthogonalLoop=1;jettySize=auto;html=1;exitX=1;exitY=0.5;exitDx=0;exitDy=0;entryX=1;entryY=0.5;entryDx=0;entryDy=0;" edge="1" parent="1" source="foBSscArrpowM1dZqByp-31" target="foBSscArrpowM1dZqByp-40">
          <mxGeometry relative="1" as="geometry" />
        </mxCell>
      </root>
    </mxGraphModel>
  </diagram>
</mxfile>
